<svg xmlns="http://www.w3.org/2000/svg" viewBox="0 0 200 50.44">
    <defs>
        <style>.cls-1{fill:#3c77bb;}.cls-2{fill:#fff;}</style>
    </defs>
    <title>MessengerShare</title>
    <g id="Ebene_1" data-name="Ebene 1">
        <rect class="cls-1" width="200" height="50.44" rx="10" ry="10"/>
        <path class="cls-2" d="M85.57,18.44V35.9H80.86V18.44H75V14.26H91.43v4.18Z"/>
        <path class="cls-2"
              d="M99.18,36.27a8.61,8.61,0,0,1-3.31-.6A6.92,6.92,0,0,1,93.4,34a7.19,7.19,0,0,1-1.52-2.68,12.45,12.45,0,0,1,0-7,7.45,7.45,0,0,1,1.47-2.69,6.64,6.64,0,0,1,2.4-1.72,8.35,8.35,0,0,1,3.26-.6,8.07,8.07,0,0,1,3.45.68,6.58,6.58,0,0,1,2.36,1.83,7.43,7.43,0,0,1,1.33,2.65,11.63,11.63,0,0,1,.42,3.15v1.36H96.11v.25a3.16,3.16,0,0,0,3.6,3.47,4.3,4.3,0,0,0,2.33-.57,9.66,9.66,0,0,0,1.67-1.36L106,33.57a7.15,7.15,0,0,1-2.83,2A10.44,10.44,0,0,1,99.18,36.27Zm-.09-13.64a2.75,2.75,0,0,0-2.19.91A3.63,3.63,0,0,0,96.11,26v.25h5.71V26a4,4,0,0,0-.67-2.41A2.37,2.37,0,0,0,99.09,22.63Z"/>
        <path class="cls-2"
              d="M112.11,17.89a2.79,2.79,0,0,1-2-.64,2.22,2.22,0,0,1-.64-1.63v-.68a2.24,2.24,0,0,1,.64-1.63,3.59,3.59,0,0,1,4.06,0,2.24,2.24,0,0,1,.64,1.63v.68a2.22,2.22,0,0,1-.64,1.63A2.79,2.79,0,0,1,112.11,17.89Zm-2.29,1.73h4.58V35.9h-4.58Z"/>
        <path class="cls-2" d="M123.24,35.9a4.6,4.6,0,0,1-3.46-1.15,4.62,4.62,0,0,1-1.1-3.32V13h4.59V32.33h2V35.9Z"/>
        <path class="cls-2"
              d="M134.86,36.27a8.64,8.64,0,0,1-3.31-.6A7,7,0,0,1,129.08,34a7.19,7.19,0,0,1-1.52-2.68,12.45,12.45,0,0,1,0-7A7.45,7.45,0,0,1,129,21.57a6.64,6.64,0,0,1,2.4-1.72,8.35,8.35,0,0,1,3.26-.6,8.07,8.07,0,0,1,3.45.68,6.58,6.58,0,0,1,2.36,1.83,7.43,7.43,0,0,1,1.33,2.65,11.63,11.63,0,0,1,.42,3.15v1.36H131.79v.25a3.16,3.16,0,0,0,3.6,3.47,4.3,4.3,0,0,0,2.33-.57,9.66,9.66,0,0,0,1.67-1.36l2.29,2.86a7.08,7.08,0,0,1-2.83,2A10.44,10.44,0,0,1,134.86,36.27Zm-.09-13.64a2.71,2.71,0,0,0-2.18.91,3.59,3.59,0,0,0-.8,2.44v.25h5.71V26a4,4,0,0,0-.67-2.41A2.37,2.37,0,0,0,134.77,22.63Z"/>
        <path class="cls-2"
              d="M145.5,35.9V19.62h4.58v2.76h.19a5,5,0,0,1,1.52-2.2,5.22,5.22,0,0,1,6.8.74,7.7,7.7,0,0,1,1.29,4.78V35.9h-4.59V26.07a4.39,4.39,0,0,0-.49-2.34A1.94,1.94,0,0,0,153,23a4.46,4.46,0,0,0-1.09.14,2.64,2.64,0,0,0-.94.45,2.44,2.44,0,0,0-.67.76,2.16,2.16,0,0,0-.25,1V35.9Z"/>
        <path id="Bubble_Shape" data-name="Bubble Shape" class="cls-2"
              d="M28,7.08c-9.8,0-17.74,7.43-17.74,16.59a16.17,16.17,0,0,0,6.59,12.9v6.35l6.06-3.36a18.9,18.9,0,0,0,5.09.69c9.8,0,17.74-7.42,17.74-16.58S37.8,7.08,28,7.08Zm1.87,22.24-4.59-4.76-8.83,4.88,9.68-10.27,4.59,4.76,8.83-4.88Z"/>
    </g>
</svg>