<svg xmlns="http://www.w3.org/2000/svg" viewBox="0 0 200 50.44">
    <defs>
        <style>.cls-1{fill:#25d366;}.cls-2,.cls-3{fill:#fff;}.cls-3{fill-rule:evenodd;}</style>
    </defs>
    <title>WhatsappShare</title>
    <g id="Ebene_1" data-name="Ebene 1">
        <rect class="cls-1" width="200" height="50.44" rx="10" ry="10"/>
        <path class="cls-2" d="M85.57,18.44V35.9H80.86V18.44H75V14.26H91.43v4.18Z"/>
        <path class="cls-2"
              d="M99.18,36.27a8.61,8.61,0,0,1-3.31-.6A6.92,6.92,0,0,1,93.4,34a7.19,7.19,0,0,1-1.52-2.68,12.45,12.45,0,0,1,0-7,7.32,7.32,0,0,1,1.47-2.68,6.55,6.55,0,0,1,2.4-1.73,8.35,8.35,0,0,1,3.26-.6,8.07,8.07,0,0,1,3.45.68,6.58,6.58,0,0,1,2.36,1.83,7.43,7.43,0,0,1,1.33,2.65,11.68,11.68,0,0,1,.42,3.15v1.36H96.11v.25a3.16,3.16,0,0,0,3.6,3.47,4.3,4.3,0,0,0,2.33-.57,9.66,9.66,0,0,0,1.67-1.36L106,33.57a7.15,7.15,0,0,1-2.83,2A10.44,10.44,0,0,1,99.18,36.27Zm-.09-13.64a2.75,2.75,0,0,0-2.19.91A3.63,3.63,0,0,0,96.11,26v.25h5.71V26a4,4,0,0,0-.67-2.41A2.37,2.37,0,0,0,99.09,22.63Z"/>
        <path class="cls-2"
              d="M112.11,17.89a2.79,2.79,0,0,1-2-.64,2.21,2.21,0,0,1-.64-1.63v-.68a2.24,2.24,0,0,1,.64-1.63,3.59,3.59,0,0,1,4.06,0,2.24,2.24,0,0,1,.64,1.63v.68a2.21,2.21,0,0,1-.64,1.63A2.79,2.79,0,0,1,112.11,17.89Zm-2.29,1.73h4.58V35.9h-4.58Z"/>
        <path class="cls-2" d="M123.24,35.9a4.6,4.6,0,0,1-3.46-1.15,4.62,4.62,0,0,1-1.1-3.32V13h4.59V32.33h2V35.9Z"/>
        <path class="cls-2"
              d="M134.86,36.27a8.64,8.64,0,0,1-3.31-.6A7,7,0,0,1,129.08,34a7.19,7.19,0,0,1-1.52-2.68,12.45,12.45,0,0,1,0-7A7.32,7.32,0,0,1,129,21.58a6.55,6.55,0,0,1,2.4-1.73,8.35,8.35,0,0,1,3.26-.6,8.07,8.07,0,0,1,3.45.68,6.58,6.58,0,0,1,2.36,1.83,7.43,7.43,0,0,1,1.33,2.65,11.68,11.68,0,0,1,.42,3.15v1.36H131.79v.25a3.16,3.16,0,0,0,3.6,3.47,4.3,4.3,0,0,0,2.33-.57,9.66,9.66,0,0,0,1.67-1.36l2.29,2.86a7.08,7.08,0,0,1-2.83,2A10.44,10.44,0,0,1,134.86,36.27Zm-.09-13.64a2.71,2.71,0,0,0-2.18.91,3.59,3.59,0,0,0-.8,2.44v.25h5.71V26a4,4,0,0,0-.67-2.41A2.37,2.37,0,0,0,134.77,22.63Z"/>
        <path class="cls-2"
              d="M145.5,35.9V19.62h4.58v2.76h.19a5,5,0,0,1,1.52-2.2,5.22,5.22,0,0,1,6.8.74,7.7,7.7,0,0,1,1.29,4.78V35.9h-4.59V26.07a4.39,4.39,0,0,0-.49-2.34A1.94,1.94,0,0,0,153,23a4.46,4.46,0,0,0-1.09.14,2.64,2.64,0,0,0-.94.45,2.44,2.44,0,0,0-.67.76,2.16,2.16,0,0,0-.25,1V35.9Z"/>
        <g id="WA_Logo" data-name="WA Logo">
            <path class="cls-3"
                  d="M40.68,12.23A17.85,17.85,0,0,0,12.6,33.76L10.07,43l9.46-2.48a17.81,17.81,0,0,0,8.52,2.17h0A17.85,17.85,0,0,0,40.68,12.23ZM28.06,39.68h0a14.77,14.77,0,0,1-7.54-2.07L20,37.29l-5.62,1.47,1.5-5.47-.35-.56a14.83,14.83,0,1,1,12.56,7Zm8.13-11.11c-.44-.22-2.63-1.3-3-1.45s-.71-.22-1,.23S31,28.8,30.73,29.09s-.52.34-1,.12A12.45,12.45,0,0,1,26.18,27a13.69,13.69,0,0,1-2.48-3.08c-.26-.45,0-.69.2-.91s.44-.53.67-.79a3.08,3.08,0,0,0,.44-.74.82.82,0,0,0,0-.78c-.12-.22-1-2.42-1.38-3.31s-.73-.75-1-.76-.56,0-.86,0a1.61,1.61,0,0,0-1.18.56A5,5,0,0,0,19,20.88a8.63,8.63,0,0,0,1.82,4.61c.22.29,3.14,4.8,7.61,6.73a26.1,26.1,0,0,0,2.54.94,6,6,0,0,0,2.81.17c.86-.13,2.64-1.08,3-2.12a3.75,3.75,0,0,0,.26-2.12C36.94,28.91,36.64,28.8,36.19,28.57Z"/>
        </g>
    </g>
</svg>