<?xml version="1.0" encoding="utf-8"?>
<!-- Generator: Adobe Illustrator 22.1.0, SVG Export Plug-In . SVG Version: 6.00 Build 0)  -->
<svg version="1.2" baseProfile="tiny"
	 id="svg2" inkscape:export-filename="/home/lukas/Schreibtisch/ic_access_time_black_48px.svg.png" inkscape:export-xdpi="1875" inkscape:export-ydpi="1875" inkscape:version="0.91 r13725" sodipodi:docname="ic_access_time_black_48px.svg" xmlns:cc="http://creativecommons.org/ns#" xmlns:dc="http://purl.org/dc/elements/1.1/" xmlns:inkscape="http://www.inkscape.org/namespaces/inkscape" xmlns:rdf="http://www.w3.org/1999/02/22-rdf-syntax-ns#" xmlns:sodipodi="http://sodipodi.sourceforge.net/DTD/sodipodi-0.dtd" xmlns:svg="http://www.w3.org/2000/svg"
	 xmlns="http://www.w3.org/2000/svg" xmlns:xlink="http://www.w3.org/1999/xlink" x="0px" y="0px" viewBox="0 0 48 48"
	 xml:space="preserve">
<sodipodi:namedview  bordercolor="#666666" borderopacity="1" gridtolerance="10" guidetolerance="10" id="namedview10" inkscape:current-layer="svg2" inkscape:cx="-40.072053" inkscape:cy="20.875849" inkscape:pageopacity="0" inkscape:pageshadow="2" inkscape:window-height="744" inkscape:window-maximized="1" inkscape:window-width="1305" inkscape:window-x="61" inkscape:window-y="24" inkscape:zoom="6.9532167" objecttolerance="10" pagecolor="#ffffff" showgrid="false">
	</sodipodi:namedview>
<path id="path6" fill="none" d="M0,0h48v48H0V0z"/>
<circle fill="#56B0EF" cx="24" cy="24" r="24"/>
<g id="g4145" transform="matrix(0.75,0,0,0.75,3,3)">
	<g id="g4142">
		<path id="path4" inkscape:connector-curvature="0" fill="#FFFFFF" d="M28,8c-11,0-20,9-20,20s8.9,20,20,20c11.1,0,20-9,20-20
			S39,8,28,8z M28,44c-8.8,0-16-7.2-16-16s7.2-16,16-16s16,7.2,16,16S36.8,44,28,44z"/>
	</g>
	<path id="path8" inkscape:connector-curvature="0" fill="#FFFFFF" d="M29,18h-3v12l10.5,6.3l1.5-2.5l-9-5.3V18z"/>
</g>
</svg>
