<?xml version="1.0" encoding="utf-8"?>
<!-- Generator: Adobe Illustrator 22.1.0, SVG Export Plug-In . SVG Version: 6.00 Build 0)  -->
<svg version="1.1"
	 id="svg2" inkscape:export-filename="/home/lukas/Schreibtisch/ic_access_time_black_48px.svg.png" inkscape:export-xdpi="1875" inkscape:export-ydpi="1875" inkscape:version="0.91 r13725" sodipodi:docname="ic_access_time_black_48px.svg"   xmlns:inkscape="http://www.inkscape.org/namespaces/inkscape"  xmlns:sodipodi="http://sodipodi.sourceforge.net/DTD/sodipodi-0.dtd"
	 xmlns="http://www.w3.org/2000/svg"  x="0px" y="0px" viewBox="0 0 48 48"
	 style="enable-background:new 0 0 48 48;" xml:space="preserve">
<style type="text/css">
	.st0{fill:#56B0EF;}
	.st1{fill:none;}
	.st2{fill:#FFFFFF;}
</style>
<rect class="st0" width="48" height="48"/>
<sodipodi:namedview  bordercolor="#666666" borderopacity="1" gridtolerance="10" guidetolerance="10" id="namedview10" inkscape:current-layer="svg2" inkscape:cx="-40.072053" inkscape:cy="20.875849" inkscape:pageopacity="0" inkscape:pageshadow="2" inkscape:window-height="744" inkscape:window-maximized="1" inkscape:window-width="1305" inkscape:window-x="61" inkscape:window-y="24" inkscape:zoom="6.9532167" objecttolerance="10" pagecolor="#ffffff" showgrid="false">
	</sodipodi:namedview>
<path id="path6" class="st1" d="M0,0h48v48H0V0z"/>
<g id="g4145" transform="matrix(0.75,0,0,0.75,3,3)">
	<g id="g4142">
		<path id="path4" inkscape:connector-curvature="0" class="st2" d="M28,8C17,8,8,17,8,28s8.9,20,20,20s20-9,20-20S39,8,28,8z
			 M28,44c-8.8,0-16-7.2-16-16s7.2-16,16-16s16,7.2,16,16S36.8,44,28,44z"/>
	</g>
	<path id="path8" inkscape:connector-curvature="0" class="st2" d="M29,18h-3v12l10.5,6.3l1.5-2.5l-9-5.3V18z"/>
</g>
</svg>
